HIERARCHY
ROOT Hips
{
	OFFSET 0.000000 0.000000 0.000000
	CHANNELS 6 Xposition Yposition Zposition Zrotation Yrotation Xrotation 
	JOINT LowerBack
	{
		OFFSET 0.000000 0.000000 0.000000
		CHANNELS 3 Zrotation Yrotation Xrotation
		JOINT Spine
		{
			OFFSET 0.028270 2.035590 -0.193380
			CHANNELS 3 Zrotation Yrotation Xrotation
			JOINT Spine1
			{
				OFFSET 0.056720 2.048850 -0.042750
				CHANNELS 3 Zrotation Yrotation Xrotation
				JOINT Neck
				{
					OFFSET 0.000000 0.000000 0.000000
					CHANNELS 3 Zrotation Yrotation Xrotation
					JOINT Neck1
					{
						OFFSET -0.054170 1.746240 0.172020
						CHANNELS 3 Zrotation Yrotation Xrotation
						JOINT Head
						{
							OFFSET 0.104070 1.761360 -0.123970
							CHANNELS 3 Zrotation Yrotation Xrotation
							End Site
							{
								OFFSET 0.000000 0.000000 0.000000
							}
						}
					}
				}
				JOINT LeftShoulder
				{
					OFFSET 0.000000 0.000000 0.000000
					CHANNELS 3 Zrotation Yrotation Xrotation
					JOINT LeftArm
					{
						OFFSET 3.362410 1.200890 -0.311210
						CHANNELS 3 Zrotation Yrotation Xrotation
						JOINT LeftForeArm
						{
							OFFSET 4.983000 -0.000000 -0.000000
							CHANNELS 3 Zrotation Yrotation Xrotation
							JOINT LeftHand
							{
								OFFSET 3.483560 -0.000000 -0.000000
								CHANNELS 3 Zrotation Yrotation Xrotation
								JOINT LeftFingerBase
								{
									OFFSET 0.000000 0.000000 0.000000
									CHANNELS 3 Zrotation Yrotation Xrotation
									JOINT LeftHandIndex1
									{
										OFFSET 0.715260 -0.000000 -0.000000
										CHANNELS 3 Zrotation Yrotation Xrotation
										End Site
										{
											OFFSET 0.000000 0.000000 0.000000
										}
									}
								}
								JOINT LThumb
								{
									OFFSET 0.000000 0.000000 0.000000
									CHANNELS 3 Zrotation Yrotation Xrotation
									End Site
									{
										OFFSET 0.000000 0.000000 0.000000
									}
								}
							}
						}
					}
				}
				JOINT RightShoulder
				{
					OFFSET 0.000000 0.000000 0.000000
					CHANNELS 3 Zrotation Yrotation Xrotation
					JOINT RightArm
					{
						OFFSET -3.136600 1.374050 -0.404650
						CHANNELS 3 Zrotation Yrotation Xrotation
						JOINT RightForeArm
						{
							OFFSET -5.241900 -0.000000 -0.000000
							CHANNELS 3 Zrotation Yrotation Xrotation
							JOINT RightHand
							{
								OFFSET -3.444170 -0.000000 -0.000000
								CHANNELS 3 Zrotation Yrotation Xrotation
								JOINT RightFingerBase
								{
									OFFSET 0.000000 0.000000 0.000000
									CHANNELS 3 Zrotation Yrotation Xrotation
									JOINT RightHandIndex1
									{
										OFFSET -0.622530 -0.000000 -0.000000
										CHANNELS 3 Zrotation Yrotation Xrotation
										End Site
										{
											OFFSET 0.000000 0.000000 0.000000
										}
									}
								}
								JOINT RThumb
								{
									OFFSET 0.000000 0.000000 0.000000
									CHANNELS 3 Zrotation Yrotation Xrotation
									End Site
									{
										OFFSET 0.000000 0.000000 0.000000
									}
								}
							}
						}
					}
				}
			}
		}
	}
}
}
MOTION
Frames: 12
Frame Time: 0.008333
1.556271 16.832722 0.062486 170.025533 -72.671340 -154.770933 -7.274812 -0.751228 -11.104650 -1.972669 -0.346386 -4.328677 -7.276683 -0.062955 0.856345 12.330846 -10.036647 -5.655328 -4.218065 -0.349294 0.478467 0.000000 0.000000 0.000000 16.109712 9.441527 -2.642387 -88.060315 -8.905990 26.481716 179.090108 -46.852931 179.764205 8.502002 -40.847067 -3.432291 -0.042149 2.566218 -0.000000 0.000000 0.000000 0.000000 0.000000 0.000000 0.000000 6.550053 -6.760226 -2.758638 92.356381 24.649495 44.665778 -179.628820 54.797897 179.773915 -30.649292 39.393116 -12.173247 0.897241 -2.143650 -0.000000 0.000000 0.000000 0.000000 0.000000 0.000000 0.000000 
1.522316 16.864604 0.056053 171.497888 -70.532646 -156.147655 -6.803390 -0.559864 -11.660837 -1.909287 -0.223506 -4.368903 -7.241232 0.056326 1.180802 12.168947 -10.164005 -5.932490 -4.204995 -0.346551 0.409749 0.000000 0.000000 0.000000 15.953255 10.380386 -2.734366 -87.549294 -9.471751 26.102850 179.263221 -46.587499 179.770094 8.487780 -40.989856 -3.443494 -0.051742 2.583276 -0.000000 0.000000 0.000000 0.000000 0.000000 0.000000 0.000000 6.436087 -6.821161 -2.846898 92.557178 24.933324 45.625279 -179.707885 54.991244 179.780481 -30.453555 38.993504 -11.969941 0.911084 -2.137194 -0.000000 0.000000 0.000000 0.000000 0.000000 0.000000 0.000000 
1.486202 16.900549 0.050597 172.815766 -68.377934 -157.345165 -6.239763 -0.361254 -12.237047 -1.833805 -0.105125 -4.414433 -7.212826 0.170250 1.496698 11.985457 -10.298015 -6.179359 -4.195378 -0.344313 0.349742 0.000000 0.000000 0.000000 15.798198 11.258039 -2.844017 -86.867670 -10.203620 25.579975 179.457324 -46.329692 179.775944 8.532907 -41.236274 -3.489081 -0.063794 2.603598 -0.000000 0.000000 0.000000 0.000000 0.000000 0.000000 0.000000 6.328093 -6.917529 -2.932571 92.711106 25.267166 46.563288 -179.790140 55.197932 179.787020 -30.257547 38.583478 -11.764581 0.924448 -2.129006 -0.000000 0.000000 0.000000 0.000000 0.000000 0.000000 0.000000 
1.448440 16.939843 0.045341 173.997797 -66.232715 -158.376128 -5.600336 -0.157211 -12.828772 -1.750076 0.008375 -4.467499 -7.198281 0.278641 1.788242 11.789561 -10.435380 -6.379641 -4.190030 -0.342816 0.302699 0.000000 0.000000 0.000000 15.662399 12.024238 -2.971984 -85.987161 -11.097685 24.862196 179.662878 -46.096531 179.781397 8.650003 -41.569067 -3.573174 -0.078088 2.624869 -0.000000 0.000000 0.000000 0.000000 0.000000 0.000000 0.000000 6.234706 -7.047771 -3.008744 92.817384 25.636415 47.453683 -179.871463 55.409863 179.793200 -30.074842 38.169581 -11.564767 0.937209 -2.119308 -0.000000 0.000000 0.000000 0.000000 0.000000 0.000000 0.000000 
1.409732 16.982042 0.040946 175.074161 -64.114692 -159.294761 -4.876525 0.048115 -13.405742 -1.656065 0.112141 -4.525611 -7.199249 0.376596 2.041893 11.574229 -10.567662 -6.516115 -4.191688 -0.342374 0.273115 0.000000 0.000000 0.000000 15.515246 12.640005 -3.109054 -84.845696 -12.150546 23.890397 179.883434 -45.882136 179.786627 8.857351 -42.002198 -3.706364 -0.095565 2.647589 -0.000000 0.000000 0.000000 0.000000 0.000000 0.000000 0.000000 6.162073 -7.204030 -3.073370 92.871657 26.054735 48.296748 -179.952862 55.637747 179.798803 -29.931087 37.760705 -11.382715 0.949711 -2.108073 -0.000000 0.000000 0.000000 0.000000 0.000000 0.000000 0.000000 
1.370882 17.026131 0.035794 176.036351 -62.059182 -160.071718 -4.111142 0.247195 -13.981484 -1.559736 0.202677 -4.593613 -7.224260 0.461038 2.243603 11.363796 -10.696731 -6.578722 -4.199494 -0.343086 0.263657 0.000000 0.000000 0.000000 15.404524 13.047571 -3.253993 -83.425240 -13.323637 22.618515 -179.908032 -45.712837 179.790719 9.192711 -42.479356 -3.900574 -0.116212 2.666603 -0.000000 0.000000 0.000000 0.000000 0.000000 0.000000 0.000000 6.124203 -7.386851 -3.117808 92.877702 26.493753 49.059929 179.971162 55.863499 179.803482 -29.843312 37.361998 -11.226395 0.962178 -2.095905 -0.000000 0.000000 0.000000 0.000000 0.000000 0.000000 0.000000 
1.332785 17.071453 0.030249 176.897491 -60.091400 -160.738670 -3.314269 0.432332 -14.533274 -1.461966 0.273545 -4.669597 -7.276485 0.525738 2.383638 11.161545 -10.812044 -6.557267 -4.213445 -0.344991 0.276981 0.000000 0.000000 0.000000 15.314623 13.220372 -3.394846 -81.669311 -14.596594 21.011557 -179.721507 -45.601111 179.793322 9.724455 -42.966712 -4.184689 -0.142419 2.679607 -0.000000 0.000000 0.000000 0.000000 0.000000 0.000000 0.000000 6.123711 -7.583071 -3.140907 92.834719 26.949812 49.733936 179.903703 56.087721 179.806938 -29.834950 36.981998 -11.106319 0.974862 -2.082976 -0.000000 0.000000 0.000000 0.000000 0.000000 0.000000 0.000000 
1.296630 17.117075 0.023097 177.632577 -58.242942 -161.265351 -2.534947 0.589976 -15.067168 -1.370350 0.316509 -4.755177 -7.359778 0.562856 2.457818 10.989772 -10.914962 -6.451186 -4.232543 -0.348039 0.313163 0.000000 0.000000 0.000000 15.272694 13.127616 -3.523232 -79.546912 -15.920770 19.050276 -179.581682 -45.564410 179.793594 10.507108 -43.412303 -4.579823 -0.174960 2.682623 -0.000000 0.000000 0.000000 0.000000 0.000000 0.000000 0.000000 6.178518 -7.792309 -3.139148 92.746604 27.411528 50.305162 179.846334 56.303398 179.809015 -29.927051 36.623532 -11.030759 0.988450 -2.069706 -0.000000 0.000000 0.000000 0.000000 0.000000 0.000000 0.000000 
1.262664 17.162600 0.016296 178.279856 -56.532192 -161.727550 -1.750856 0.711781 -15.543498 -1.278479 0.321859 -4.843868 -7.470415 0.562483 2.466970 10.836229 -10.986685 -6.259834 -4.255325 -0.351983 0.372423 0.000000 0.000000 0.000000 15.216462 12.781990 -3.617368 -76.987156 -17.274676 16.723339 -179.484026 -45.601033 179.791828 11.597620 -43.839671 -5.116929 -0.216088 2.677170 -0.000000 0.000000 0.000000 0.000000 0.000000 0.000000 0.000000 6.274119 -7.991648 -3.119737 92.607371 27.890073 50.782327 179.802006 56.519418 179.809496 -30.140703 36.291749 -11.007747 1.003071 -2.055772 -0.000000 0.000000 0.000000 0.000000 0.000000 0.000000 0.000000 
1.232323 17.207009 0.008108 178.801306 -54.993137 -162.068292 -1.038958 0.782782 -15.987726 -1.199464 0.283211 -4.938597 -7.613075 0.518972 2.416362 10.739193 -11.035903 -5.995608 -4.277994 -0.356477 0.451337 0.000000 0.000000 0.000000 15.196527 12.180671 -3.676071 -73.996972 -18.607031 14.058257 -179.457934 -45.754462 179.787087 13.012671 -44.176068 -5.795752 -0.264185 2.657908 -0.000000 0.000000 0.000000 0.000000 0.000000 0.000000 0.000000 6.435115 -8.189910 -3.079808 92.424567 28.362673 51.146092 179.773953 56.718338 179.808344 -30.482829 35.982598 -11.037745 1.019217 -2.041569 -0.000000 0.000000 0.000000 0.000000 0.000000 0.000000 0.000000 
1.206412 17.249742 -0.001111 179.203905 -53.645872 -162.302572 -0.419255 0.793712 -16.395812 -1.135539 0.194382 -5.036802 -7.785478 0.426360 2.315642 10.710958 -11.058919 -5.672173 -4.296824 -0.361081 0.546245 0.000000 0.000000 0.000000 15.196900 11.357834 -3.692632 -70.567091 -19.895348 11.089170 -179.507213 -46.054189 179.779427 14.741779 -44.402887 -6.607301 -0.317724 2.623920 -0.000000 0.000000 0.000000 0.000000 0.000000 0.000000 0.000000 6.664271 -8.382421 -3.023972 92.197293 28.825670 51.396227 179.764967 56.895824 179.805555 -30.956042 35.693748 -11.119954 1.036895 -2.026949 -0.000000 0.000000 0.000000 0.000000 0.000000 0.000000 0.000000 
1.184732 17.290470 -0.009591 179.508281 -52.502107 -162.482401 0.120247 0.736785 -16.739579 -1.081959 0.048706 -5.132250 -7.977573 0.277579 2.173360 10.743968 -11.050084 -5.300476 -4.308529 -0.365388 0.654285 0.000000 0.000000 0.000000 15.173343 10.346197 -3.655555 -66.685322 -21.102089 7.840080 -179.617565 -46.505523 179.769953 16.710219 -44.652225 -7.537174 -0.372367 2.580241 -0.000000 0.000000 0.000000 0.000000 0.000000 0.000000 0.000000 6.950182 -8.563719 -2.959499 91.916647 29.294753 51.548738 179.775974 57.060610 179.801189 -31.560132 35.418686 -11.251304 1.055851 -2.011133 -0.000000 0.000000 0.000000 0.000000 0.000000 0.000000 0.000000 
